<svg width="114" height="107" viewBox="0 0 114 107" fill="none" xmlns="http://www.w3.org/2000/svg">
<path d="M57.2109 103.221C84.8252 103.221 107.211 80.8349 107.211 53.2207C107.211 25.6065 84.8252 3.2207 57.2109 3.2207C29.5967 3.2207 7.21094 25.6065 7.21094 53.2207C7.21094 80.8349 29.5967 103.221 57.2109 103.221Z" fill="#E8E8E8"/>
<path fill-rule="evenodd" clip-rule="evenodd" d="M70.0281 42.4526C68.7011 40.0355 66.3776 37.7612 63.0575 35.8444C51.9962 29.4581 34.0623 29.4581 23.0009 35.8444C19.6809 37.7612 17.3574 40.0355 16.0304 42.4526H14.7031V47.1855H14.7076C14.6079 51.4444 17.3724 55.7214 23.0009 58.9711C34.0623 65.3573 51.9962 65.3573 63.0575 58.9711C68.6861 55.7214 71.4506 51.4444 71.3509 47.1855H71.3727V42.4526H70.0281Z" fill="#009260"/>
<path d="M70.0281 42.4526L69.3707 42.8136L69.5843 43.2026H70.0281V42.4526ZM16.0304 42.4526V43.2026H16.4742L16.6878 42.8136L16.0304 42.4526ZM14.7031 42.4526V41.7026H13.9531V42.4526H14.7031ZM14.7031 47.1855H13.9531V47.9355H14.7031V47.1855ZM14.7076 47.1855L15.4573 47.203L15.4753 46.4355H14.7076V47.1855ZM71.3509 47.1855V46.4355H70.5832L70.6011 47.203L71.3509 47.1855ZM71.3727 47.1855V47.9355H72.1227V47.1855H71.3727ZM71.3727 42.4526H72.1227V41.7026H71.3727V42.4526ZM62.6825 36.4939C65.9156 38.3605 68.1253 40.5452 69.3707 42.8136L70.6856 42.0917C69.2769 39.5258 66.8395 37.1619 63.4325 35.1949L62.6825 36.4939ZM23.3759 36.4939C28.7658 33.3821 35.8772 31.8047 43.0292 31.8047C50.1813 31.8047 57.2927 33.3821 62.6825 36.4939L63.4325 35.1949C57.761 31.9204 50.3748 30.3047 43.0292 30.3047C35.6837 30.3047 28.2974 31.9204 22.6259 35.1949L23.3759 36.4939ZM16.6878 42.8136C17.9331 40.5452 20.1429 38.3605 23.3759 36.4939L22.6259 35.1949C19.219 37.1619 16.7816 39.5258 15.3729 42.0917L16.6878 42.8136ZM14.7031 43.2026H16.0304V41.7026H14.7031V43.2026ZM15.4531 47.1855V42.4526H13.9531V47.1855H15.4531ZM14.7076 46.4355H14.7031V47.9355H14.7076V46.4355ZM23.3759 58.3215C17.8863 55.1521 15.3664 51.0902 15.4573 47.203L13.9578 47.1679C13.8494 51.7985 16.8584 56.2907 22.6259 59.6206L23.3759 58.3215ZM62.6825 58.3215C57.2927 61.4334 50.1813 63.0108 43.0292 63.0108C35.8772 63.0108 28.7658 61.4334 23.3759 58.3215L22.6259 59.6206C28.2974 62.895 35.6837 64.5108 43.0292 64.5108C50.3748 64.5108 57.761 62.895 63.4325 59.6206L62.6825 58.3215ZM70.6011 47.203C70.6921 51.0902 68.1721 55.1521 62.6825 58.3215L63.4325 59.6206C69.2 56.2907 72.209 51.7985 72.1007 47.1679L70.6011 47.203ZM71.3727 46.4355H71.3509V47.9355H71.3727V46.4355ZM70.6227 42.4526V47.1855H72.1227V42.4526H70.6227ZM70.0281 43.2026H71.3727V41.7026H70.0281V43.2026Z" fill="#060606"/>
<mask id="mask0_19362_38678" style="mask-type:alpha" maskUnits="userSpaceOnUse" x="13" y="29" width="60" height="35">
<path fill-rule="evenodd" clip-rule="evenodd" d="M70.0281 41.5269C68.7011 39.1097 66.3776 36.8354 63.0575 34.9186C51.9962 28.5323 34.0623 28.5323 23.0009 34.9186C19.6809 36.8354 17.3574 39.1097 16.0304 41.5269H14.7031V46.2597H14.7076C14.6079 50.5186 17.3724 54.7956 23.0009 58.0453C34.0623 64.4315 51.9962 64.4315 63.0575 58.0453C68.6861 54.7956 71.4506 50.5186 71.3509 46.2597H71.3727V41.5269H70.0281Z" fill="#71A407"/>
<path d="M70.0281 41.5269L69.3707 41.8878L69.5843 42.2769H70.0281V41.5269ZM16.0304 41.5269V42.2769H16.4742L16.6878 41.8878L16.0304 41.5269ZM14.7031 41.5269V40.7769H13.9531V41.5269H14.7031ZM14.7031 46.2597H13.9531V47.0097H14.7031V46.2597ZM14.7076 46.2597L15.4573 46.2772L15.4753 45.5097H14.7076V46.2597ZM71.3509 46.2597V45.5097H70.5832L70.6011 46.2772L71.3509 46.2597ZM71.3727 46.2597V47.0097H72.1227V46.2597H71.3727ZM71.3727 41.5269H72.1227V40.7769H71.3727V41.5269ZM62.6825 35.5681C65.9156 37.4347 68.1253 39.6194 69.3707 41.8878L70.6856 41.1659C69.2769 38.6 66.8395 36.2361 63.4325 34.2691L62.6825 35.5681ZM23.3759 35.5681C28.7658 32.4563 35.8772 30.8789 43.0292 30.8789C50.1813 30.8789 57.2927 32.4563 62.6825 35.5681L63.4325 34.2691C57.761 30.9946 50.3748 29.3789 43.0292 29.3789C35.6837 29.3789 28.2974 30.9946 22.6259 34.2691L23.3759 35.5681ZM16.6878 41.8878C17.9331 39.6194 20.1429 37.4347 23.3759 35.5681L22.6259 34.2691C19.219 36.2361 16.7816 38.6 15.3729 41.1659L16.6878 41.8878ZM14.7031 42.2769H16.0304V40.7769H14.7031V42.2769ZM15.4531 46.2597V41.5269H13.9531V46.2597H15.4531ZM14.7076 45.5097H14.7031V47.0097H14.7076V45.5097ZM23.3759 57.3958C17.8863 54.2263 15.3664 50.1644 15.4573 46.2772L13.9578 46.2422C13.8494 50.8727 16.8584 55.3649 22.6259 58.6948L23.3759 57.3958ZM62.6825 57.3958C57.2927 60.5076 50.1813 62.085 43.0292 62.085C35.8772 62.085 28.7658 60.5076 23.3759 57.3958L22.6259 58.6948C28.2974 61.9692 35.6837 63.585 43.0292 63.585C50.3748 63.585 57.761 61.9692 63.4325 58.6948L62.6825 57.3958ZM70.6011 46.2772C70.6921 50.1644 68.1721 54.2263 62.6825 57.3958L63.4325 58.6948C69.2 55.3649 72.209 50.8727 72.1007 46.2422L70.6011 46.2772ZM71.3727 45.5097H71.3509V47.0097H71.3727V45.5097ZM70.6227 41.5269V46.2597H72.1227V41.5269H70.6227ZM70.0281 42.2769H71.3727V40.7769H70.0281V42.2769Z" fill="#060606"/>
</mask>
<g mask="url(#mask0_19362_38678)">
<path d="M14.7038 41.5273H43.0391V64.6536H14.7038V41.5273Z" fill="#009260"/>
</g>
<path d="M70.0281 42.4526L69.3707 42.8136L69.5843 43.2026H70.0281V42.4526ZM16.0304 42.4526V43.2026H16.4742L16.6878 42.8136L16.0304 42.4526ZM14.7031 42.4526V41.7026H13.9531V42.4526H14.7031ZM14.7031 47.1855H13.9531V47.9355H14.7031V47.1855ZM14.7076 47.1855L15.4573 47.203L15.4753 46.4355H14.7076V47.1855ZM71.3509 47.1855V46.4355H70.5832L70.6011 47.203L71.3509 47.1855ZM71.3727 47.1855V47.9355H72.1227V47.1855H71.3727ZM71.3727 42.4526H72.1227V41.7026H71.3727V42.4526ZM62.6825 36.4939C65.9156 38.3605 68.1253 40.5452 69.3707 42.8136L70.6856 42.0917C69.2769 39.5258 66.8395 37.1619 63.4325 35.1949L62.6825 36.4939ZM23.3759 36.4939C28.7658 33.3821 35.8772 31.8047 43.0292 31.8047C50.1813 31.8047 57.2927 33.3821 62.6825 36.4939L63.4325 35.1949C57.761 31.9204 50.3748 30.3047 43.0292 30.3047C35.6837 30.3047 28.2974 31.9204 22.6259 35.1949L23.3759 36.4939ZM16.6878 42.8136C17.9331 40.5452 20.1429 38.3605 23.3759 36.4939L22.6259 35.1949C19.219 37.1619 16.7816 39.5258 15.3729 42.0917L16.6878 42.8136ZM14.7031 43.2026H16.0304V41.7026H14.7031V43.2026ZM15.4531 47.1855V42.4526H13.9531V47.1855H15.4531ZM14.7076 46.4355H14.7031V47.9355H14.7076V46.4355ZM23.3759 58.3215C17.8863 55.1521 15.3664 51.0902 15.4573 47.203L13.9578 47.1679C13.8494 51.7985 16.8584 56.2907 22.6259 59.6206L23.3759 58.3215ZM62.6825 58.3215C57.2927 61.4334 50.1813 63.0108 43.0292 63.0108C35.8772 63.0108 28.7658 61.4334 23.3759 58.3215L22.6259 59.6206C28.2974 62.895 35.6837 64.5108 43.0292 64.5108C50.3748 64.5108 57.761 62.895 63.4325 59.6206L62.6825 58.3215ZM70.6011 47.203C70.6921 51.0902 68.1721 55.1521 62.6825 58.3215L63.4325 59.6206C69.2 56.2907 72.209 51.7985 72.1007 47.1679L70.6011 47.203ZM71.3727 46.4355H71.3509V47.9355H71.3727V46.4355ZM70.6227 42.4526V47.1855H72.1227V42.4526H70.6227ZM70.0281 43.2026H71.3727V41.7026H70.0281V43.2026Z" fill="#060606"/>
<path d="M63.0615 52.2001C74.1228 45.8138 74.1228 35.4596 63.0615 29.0734C52.0001 22.6871 34.0662 22.6871 23.0049 29.0734C11.9435 35.4596 11.9435 45.8138 23.0049 52.2001C34.0662 58.5863 52.0001 58.5863 63.0615 52.2001Z" fill="white" stroke="#060606" stroke-width="1.5"/>
<path fill-rule="evenodd" clip-rule="evenodd" d="M98.3719 60.9507C97.0449 58.5335 94.7214 56.2592 91.4013 54.3424C80.34 47.9562 62.4061 47.9562 51.3447 54.3424C48.0247 56.2592 45.7012 58.5335 44.3742 60.9507H43.0469V65.6835H43.0514C42.9517 69.9424 45.7162 74.2195 51.3447 77.4691C62.4061 83.8554 80.34 83.8554 91.4013 77.4691C97.0299 74.2195 99.7944 69.9424 99.6947 65.6835H99.7165V60.9507H98.3719Z" fill="#009260"/>
<path d="M98.3719 60.9507L97.7145 61.3116L97.9281 61.7007H98.3719V60.9507ZM44.3742 60.9507V61.7007H44.818L45.0316 61.3116L44.3742 60.9507ZM43.0469 60.9507V60.2007H42.2969V60.9507H43.0469ZM43.0469 65.6835H42.2969V66.4335H43.0469V65.6835ZM43.0514 65.6835L43.8011 65.7011L43.8191 64.9335H43.0514V65.6835ZM99.6947 65.6835V64.9335H98.927L98.9449 65.7011L99.6947 65.6835ZM99.7165 65.6835V66.4335H100.466V65.6835H99.7165ZM99.7165 60.9507H100.466V60.2007H99.7165V60.9507ZM91.0263 54.9919C94.2594 56.8586 96.4691 59.0432 97.7145 61.3116L99.0294 60.5898C97.6207 58.0238 95.1833 55.6599 91.7763 53.6929L91.0263 54.9919ZM51.7197 54.9919C57.1096 51.8801 64.221 50.3027 71.373 50.3027C78.5251 50.3027 85.6365 51.8801 91.0263 54.9919L91.7763 53.6929C86.1048 50.4185 78.7186 48.8027 71.373 48.8027C64.0275 48.8027 56.6413 50.4185 50.9697 53.6929L51.7197 54.9919ZM45.0316 61.3116C46.2769 59.0432 48.4867 56.8586 51.7197 54.9919L50.9697 53.6929C47.5628 55.6599 45.1254 58.0238 43.7167 60.5898L45.0316 61.3116ZM43.0469 61.7007H44.3742V60.2007H43.0469V61.7007ZM43.7969 65.6835V60.9507H42.2969V65.6835H43.7969ZM43.0514 64.9335H43.0469V66.4335H43.0514V64.9335ZM51.7197 76.8196C46.2301 73.6502 43.7102 69.5883 43.8011 65.7011L42.3016 65.666C42.1932 70.2965 45.2022 74.7888 50.9697 78.1186L51.7197 76.8196ZM91.0263 76.8196C85.6365 79.9314 78.5251 81.5088 71.373 81.5088C64.221 81.5088 57.1096 79.9314 51.7197 76.8196L50.9697 78.1186C56.6412 81.3931 64.0275 83.0088 71.373 83.0088C78.7186 83.0088 86.1048 81.3931 91.7763 78.1186L91.0263 76.8196ZM98.9449 65.7011C99.0359 69.5883 96.5159 73.6502 91.0263 76.8196L91.7763 78.1186C97.5439 74.7888 100.553 70.2965 100.444 65.666L98.9449 65.7011ZM99.7165 64.9335H99.6947V66.4335H99.7165V64.9335ZM98.9665 60.9507V65.6835H100.466V60.9507H98.9665ZM98.3719 61.7007H99.7165V60.2007H98.3719V61.7007Z" fill="#060606"/>
<mask id="mask1_19362_38678" style="mask-type:alpha" maskUnits="userSpaceOnUse" x="42" y="47" width="59" height="36">
<path fill-rule="evenodd" clip-rule="evenodd" d="M98.3719 60.023C97.0449 57.6058 94.7214 55.3315 91.4013 53.4147C80.34 47.0284 62.4061 47.0284 51.3447 53.4147C48.0247 55.3315 45.7012 57.6058 44.3742 60.023H43.0469V64.7558H43.0514C42.9517 69.0147 45.7162 73.2917 51.3447 76.5414C62.4061 82.9276 80.34 82.9276 91.4013 76.5414C97.0299 73.2917 99.7944 69.0147 99.6947 64.7558H99.7165V60.023H98.3719Z" fill="#71A407"/>
<path d="M98.3719 60.023L97.7145 60.3839L97.9281 60.773H98.3719V60.023ZM44.3742 60.023V60.773H44.818L45.0316 60.3839L44.3742 60.023ZM43.0469 60.023V59.273H42.2969V60.023H43.0469ZM43.0469 64.7558H42.2969V65.5058H43.0469V64.7558ZM43.0514 64.7558L43.8011 64.7733L43.8191 64.0058H43.0514V64.7558ZM99.6947 64.7558V64.0058H98.927L98.9449 64.7733L99.6947 64.7558ZM99.7165 64.7558V65.5058H100.466V64.7558H99.7165ZM99.7165 60.023H100.466V59.273H99.7165V60.023ZM91.0263 54.0642C94.2594 55.9308 96.4691 58.1155 97.7145 60.3839L99.0294 59.662C97.6207 57.0961 95.1833 54.7322 91.7763 52.7652L91.0263 54.0642ZM51.7197 54.0642C57.1096 50.9524 64.221 49.375 71.373 49.375C78.5251 49.375 85.6365 50.9524 91.0263 54.0642L91.7763 52.7652C86.1048 49.4907 78.7186 47.875 71.373 47.875C64.0275 47.875 56.6413 49.4907 50.9697 52.7652L51.7197 54.0642ZM45.0316 60.3839C46.2769 58.1155 48.4867 55.9308 51.7197 54.0642L50.9697 52.7652C47.5628 54.7322 45.1254 57.0961 43.7167 59.662L45.0316 60.3839ZM43.0469 60.773H44.3742V59.273H43.0469V60.773ZM43.7969 64.7558V60.023H42.2969V64.7558H43.7969ZM43.0514 64.0058H43.0469V65.5058H43.0514V64.0058ZM51.7197 75.8919C46.2301 72.7224 43.7102 68.6605 43.8011 64.7733L42.3016 64.7383C42.1932 69.3688 45.2022 73.861 50.9697 77.1909L51.7197 75.8919ZM91.0263 75.8919C85.6365 79.0037 78.5251 80.5811 71.373 80.5811C64.221 80.5811 57.1096 79.0037 51.7197 75.8919L50.9697 77.1909C56.6412 80.4653 64.0275 82.0811 71.373 82.0811C78.7186 82.0811 86.1048 80.4653 91.7763 77.1909L91.0263 75.8919ZM98.9449 64.7733C99.0359 68.6605 96.5159 72.7224 91.0263 75.8919L91.7763 77.1909C97.5439 73.861 100.553 69.3688 100.444 64.7383L98.9449 64.7733ZM99.7165 64.0058H99.6947V65.5058H99.7165V64.0058ZM98.9665 60.023V64.7558H100.466V60.023H98.9665ZM98.3719 60.773H99.7165V59.273H98.3719V60.773Z" fill="#060606"/>
</mask>
<g mask="url(#mask1_19362_38678)">
<path d="M43.0475 60.0254H71.3828V83.1517H43.0475V60.0254Z" fill="#009260"/>
</g>
<path d="M98.3719 60.9507L97.7145 61.3116L97.9281 61.7007H98.3719V60.9507ZM44.3742 60.9507V61.7007H44.818L45.0316 61.3116L44.3742 60.9507ZM43.0469 60.9507V60.2007H42.2969V60.9507H43.0469ZM43.0469 65.6835H42.2969V66.4335H43.0469V65.6835ZM43.0514 65.6835L43.8011 65.7011L43.8191 64.9335H43.0514V65.6835ZM99.6947 65.6835V64.9335H98.927L98.9449 65.7011L99.6947 65.6835ZM99.7165 65.6835V66.4335H100.466V65.6835H99.7165ZM99.7165 60.9507H100.466V60.2007H99.7165V60.9507ZM91.0263 54.9919C94.2594 56.8586 96.4691 59.0432 97.7145 61.3116L99.0294 60.5898C97.6207 58.0238 95.1833 55.6599 91.7763 53.6929L91.0263 54.9919ZM51.7197 54.9919C57.1096 51.8801 64.221 50.3027 71.373 50.3027C78.5251 50.3027 85.6365 51.8801 91.0263 54.9919L91.7763 53.6929C86.1048 50.4185 78.7186 48.8027 71.373 48.8027C64.0275 48.8027 56.6413 50.4185 50.9697 53.6929L51.7197 54.9919ZM45.0316 61.3116C46.2769 59.0432 48.4867 56.8586 51.7197 54.9919L50.9697 53.6929C47.5628 55.6599 45.1254 58.0238 43.7167 60.5898L45.0316 61.3116ZM43.0469 61.7007H44.3742V60.2007H43.0469V61.7007ZM43.7969 65.6835V60.9507H42.2969V65.6835H43.7969ZM43.0514 64.9335H43.0469V66.4335H43.0514V64.9335ZM51.7197 76.8196C46.2301 73.6502 43.7102 69.5883 43.8011 65.7011L42.3016 65.666C42.1932 70.2965 45.2022 74.7888 50.9697 78.1186L51.7197 76.8196ZM91.0263 76.8196C85.6365 79.9314 78.5251 81.5088 71.373 81.5088C64.221 81.5088 57.1096 79.9314 51.7197 76.8196L50.9697 78.1186C56.6412 81.3931 64.0275 83.0088 71.373 83.0088C78.7186 83.0088 86.1048 81.3931 91.7763 78.1186L91.0263 76.8196ZM98.9449 65.7011C99.0359 69.5883 96.5159 73.6502 91.0263 76.8196L91.7763 78.1186C97.5439 74.7888 100.553 70.2965 100.444 65.666L98.9449 65.7011ZM99.7165 64.9335H99.6947V66.4335H99.7165V64.9335ZM98.9665 60.9507V65.6835H100.466V60.9507H98.9665ZM98.3719 61.7007H99.7165V60.2007H98.3719V61.7007Z" fill="#060606"/>
<path d="M91.4052 70.6981C102.467 64.3119 102.467 53.9577 91.4052 47.5714C80.3439 41.1852 62.4099 41.1852 51.3486 47.5714C40.2873 53.9577 40.2873 64.3119 51.3486 70.6981C62.4099 77.0844 80.3439 77.0844 91.4052 70.6981Z" fill="#009260" stroke="#060606" stroke-width="1.5"/>
<path d="M77.4765 52.3321C75.5146 50.8009 72.5179 51.099 69.2887 52.008L66.9426 49.7539L64.5662 50.5784L66.8505 52.7732C66.2258 52.9899 65.5946 53.2186 64.9677 53.446L62.6688 51.2366L60.2935 52.0606L62.6379 54.3144C62.1297 54.499 61.6302 54.6798 61.1377 54.8509L61.1301 54.844L57.8516 55.9804L59.3773 57.4457C59.3773 57.4457 61.1122 56.8175 61.1024 56.8463C62.0652 56.5125 62.7143 56.7265 63.0952 56.9733L65.768 59.5412C65.8346 59.5184 65.9229 59.4899 66.0291 59.4636C65.95 59.4912 65.865 59.5203 65.7783 59.5509L69.5217 63.1486C69.6614 63.3382 69.7736 63.6788 69.1018 63.9128C69.1484 63.9178 67.3739 64.5119 67.3739 64.5119L68.6071 66.3143L71.6997 65.2413C72.2757 65.0421 72.8478 64.8513 73.4059 64.6604L75.7796 66.9399L78.1538 66.1166L75.8061 63.8609C76.4661 63.6425 77.1 63.4267 77.7155 63.2127L80.0512 65.4584L82.4276 64.6339L80.0599 62.3578C83.9176 60.8394 86.1092 59.2882 84.2021 57.0015C82.6671 55.1599 80.4359 54.8746 77.8406 55.347C78.7969 54.4639 78.9156 53.4513 77.4765 52.3321ZM79.225 58.3603C80.9994 60.0636 75.7449 61.6227 74.1352 62.1823L70.9921 59.1615C72.6035 58.6028 77.3758 56.5832 79.225 58.3603ZM73.6844 54.4821C75.2968 56.0324 70.8946 57.3134 69.5531 57.7788L66.7021 55.0392C68.0436 54.5737 72.0015 52.8654 73.6844 54.4821Z" fill="#060606"/>
<path fill-rule="evenodd" clip-rule="evenodd" d="M98.3719 54.0171C97.0449 51.5999 94.7214 49.3256 91.4013 47.4088C80.34 41.0226 62.4061 41.0226 51.3447 47.4088C48.0247 49.3256 45.7012 51.5999 44.3742 54.0171H43.0469V58.7499H43.0514C42.9517 63.0088 45.7162 67.2859 51.3447 70.5355C62.4061 76.9218 80.34 76.9218 91.4013 70.5355C97.0299 67.2859 99.7944 63.0088 99.6947 58.7499H99.7165V54.0171H98.3719Z" fill="#009260"/>
<path d="M98.3719 54.0171L97.7145 54.378L97.9281 54.7671H98.3719V54.0171ZM44.3742 54.0171V54.7671H44.818L45.0316 54.378L44.3742 54.0171ZM43.0469 54.0171V53.2671H42.2969V54.0171H43.0469ZM43.0469 58.7499H42.2969V59.4999H43.0469V58.7499ZM43.0514 58.7499L43.8011 58.7675L43.8191 57.9999H43.0514V58.7499ZM99.6947 58.7499V57.9999H98.927L98.9449 58.7675L99.6947 58.7499ZM99.7165 58.7499V59.4999H100.466V58.7499H99.7165ZM99.7165 54.0171H100.466V53.2671H99.7165V54.0171ZM91.0263 48.0583C94.2594 49.925 96.4691 52.1097 97.7145 54.378L99.0294 53.6562C97.6207 51.0902 95.1833 48.7263 91.7763 46.7593L91.0263 48.0583ZM51.7197 48.0583C57.1096 44.9465 64.221 43.3691 71.373 43.3691C78.5251 43.3691 85.6365 44.9465 91.0263 48.0583L91.7763 46.7593C86.1048 43.4849 78.7186 41.8691 71.373 41.8691C64.0275 41.8691 56.6413 43.4849 50.9697 46.7593L51.7197 48.0583ZM45.0316 54.378C46.2769 52.1097 48.4867 49.925 51.7197 48.0583L50.9697 46.7593C47.5628 48.7263 45.1254 51.0902 43.7167 53.6562L45.0316 54.378ZM43.0469 54.7671H44.3742V53.2671H43.0469V54.7671ZM43.7969 58.7499V54.0171H42.2969V58.7499H43.7969ZM43.0514 57.9999H43.0469V59.4999H43.0514V57.9999ZM51.7197 69.886C46.2301 66.7166 43.7102 62.6547 43.8011 58.7675L42.3016 58.7324C42.1932 63.3629 45.2022 67.8552 50.9697 71.185L51.7197 69.886ZM91.0263 69.886C85.6365 72.9978 78.5251 74.5752 71.373 74.5752C64.221 74.5752 57.1096 72.9978 51.7197 69.886L50.9697 71.185C56.6412 74.4595 64.0275 76.0752 71.373 76.0752C78.7186 76.0752 86.1048 74.4595 91.7763 71.185L91.0263 69.886ZM98.9449 58.7675C99.0359 62.6547 96.5159 66.7166 91.0263 69.886L91.7763 71.185C97.5439 67.8552 100.553 63.3629 100.444 58.7324L98.9449 58.7675ZM99.7165 57.9999H99.6947V59.4999H99.7165V57.9999ZM98.9665 54.0171V58.7499H100.466V54.0171H98.9665ZM98.3719 54.7671H99.7165V53.2671H98.3719V54.7671Z" fill="#060606"/>
<mask id="mask2_19362_38678" style="mask-type:alpha" maskUnits="userSpaceOnUse" x="42" y="40" width="59" height="36">
<path fill-rule="evenodd" clip-rule="evenodd" d="M98.3719 53.0913C97.0449 50.6742 94.7214 48.3999 91.4013 46.483C80.34 40.0968 62.4061 40.0968 51.3447 46.483C48.0247 48.3999 45.7012 50.6742 44.3742 53.0913H43.0469V57.8242H43.0514C42.9517 62.083 45.7162 66.3601 51.3447 69.6097C62.4061 75.996 80.34 75.996 91.4013 69.6097C97.0299 66.3601 99.7944 62.083 99.6947 57.8242H99.7165V53.0913H98.3719Z" fill="#71A407"/>
<path d="M98.3719 53.0913L97.7145 53.4523L97.9281 53.8413H98.3719V53.0913ZM44.3742 53.0913V53.8413H44.818L45.0316 53.4523L44.3742 53.0913ZM43.0469 53.0913V52.3413H42.2969V53.0913H43.0469ZM43.0469 57.8242H42.2969V58.5742H43.0469V57.8242ZM43.0514 57.8242L43.8011 57.8417L43.8191 57.0742H43.0514V57.8242ZM99.6947 57.8242V57.0742H98.927L98.9449 57.8417L99.6947 57.8242ZM99.7165 57.8242V58.5742H100.466V57.8242H99.7165ZM99.7165 53.0913H100.466V52.3413H99.7165V53.0913ZM91.0263 47.1326C94.2594 48.9992 96.4691 51.1839 97.7145 53.4523L99.0294 52.7304C97.6207 50.1644 95.1833 47.8005 91.7763 45.8335L91.0263 47.1326ZM51.7197 47.1326C57.1096 44.0208 64.221 42.4434 71.373 42.4434C78.5251 42.4434 85.6365 44.0208 91.0263 47.1326L91.7763 45.8335C86.1048 42.5591 78.7186 40.9434 71.373 40.9434C64.0275 40.9434 56.6413 42.5591 50.9697 45.8335L51.7197 47.1326ZM45.0316 53.4523C46.2769 51.1839 48.4867 48.9992 51.7197 47.1326L50.9697 45.8335C47.5628 47.8005 45.1254 50.1644 43.7167 52.7304L45.0316 53.4523ZM43.0469 53.8413H44.3742V52.3413H43.0469V53.8413ZM43.7969 57.8242V53.0913H42.2969V57.8242H43.7969ZM43.0514 57.0742H43.0469V58.5742H43.0514V57.0742ZM51.7197 68.9602C46.2301 65.7908 43.7102 61.7289 43.8011 57.8417L42.3016 57.8066C42.1932 62.4372 45.2022 66.9294 50.9697 70.2593L51.7197 68.9602ZM91.0263 68.9602C85.6365 72.072 78.5251 73.6494 71.373 73.6494C64.221 73.6494 57.1096 72.072 51.7197 68.9602L50.9697 70.2593C56.6412 73.5337 64.0275 75.1494 71.373 75.1494C78.7186 75.1494 86.1048 73.5337 91.7763 70.2593L91.0263 68.9602ZM98.9449 57.8417C99.0359 61.7289 96.5159 65.7908 91.0263 68.9602L91.7763 70.2593C97.5439 66.9294 100.553 62.4372 100.444 57.8066L98.9449 57.8417ZM99.7165 57.0742H99.6947V58.5742H99.7165V57.0742ZM98.9665 53.0913V57.8242H100.466V53.0913H98.9665ZM98.3719 53.8413H99.7165V52.3413H98.3719V53.8413Z" fill="#060606"/>
</mask>
<g mask="url(#mask2_19362_38678)">
<path d="M43.0475 53.0918H71.3828V76.2181H43.0475V53.0918Z" fill="#009260"/>
</g>
<path d="M98.3719 54.0171L97.7145 54.378L97.9281 54.7671H98.3719V54.0171ZM44.3742 54.0171V54.7671H44.818L45.0316 54.378L44.3742 54.0171ZM43.0469 54.0171V53.2671H42.2969V54.0171H43.0469ZM43.0469 58.7499H42.2969V59.4999H43.0469V58.7499ZM43.0514 58.7499L43.8011 58.7675L43.8191 57.9999H43.0514V58.7499ZM99.6947 58.7499V57.9999H98.927L98.9449 58.7675L99.6947 58.7499ZM99.7165 58.7499V59.4999H100.466V58.7499H99.7165ZM99.7165 54.0171H100.466V53.2671H99.7165V54.0171ZM91.0263 48.0583C94.2594 49.925 96.4691 52.1097 97.7145 54.378L99.0294 53.6562C97.6207 51.0902 95.1833 48.7263 91.7763 46.7593L91.0263 48.0583ZM51.7197 48.0583C57.1096 44.9465 64.221 43.3691 71.373 43.3691C78.5251 43.3691 85.6365 44.9465 91.0263 48.0583L91.7763 46.7593C86.1048 43.4849 78.7186 41.8691 71.373 41.8691C64.0275 41.8691 56.6413 43.4849 50.9697 46.7593L51.7197 48.0583ZM45.0316 54.378C46.2769 52.1097 48.4867 49.925 51.7197 48.0583L50.9697 46.7593C47.5628 48.7263 45.1254 51.0902 43.7167 53.6562L45.0316 54.378ZM43.0469 54.7671H44.3742V53.2671H43.0469V54.7671ZM43.7969 58.7499V54.0171H42.2969V58.7499H43.7969ZM43.0514 57.9999H43.0469V59.4999H43.0514V57.9999ZM51.7197 69.886C46.2301 66.7166 43.7102 62.6547 43.8011 58.7675L42.3016 58.7324C42.1932 63.3629 45.2022 67.8552 50.9697 71.185L51.7197 69.886ZM91.0263 69.886C85.6365 72.9978 78.5251 74.5752 71.373 74.5752C64.221 74.5752 57.1096 72.9978 51.7197 69.886L50.9697 71.185C56.6412 74.4595 64.0275 76.0752 71.373 76.0752C78.7186 76.0752 86.1048 74.4595 91.7763 71.185L91.0263 69.886ZM98.9449 58.7675C99.0359 62.6547 96.5159 66.7166 91.0263 69.886L91.7763 71.185C97.5439 67.8552 100.553 63.3629 100.444 58.7324L98.9449 58.7675ZM99.7165 57.9999H99.6947V59.4999H99.7165V57.9999ZM98.9665 54.0171V58.7499H100.466V54.0171H98.9665ZM98.3719 54.7671H99.7165V53.2671H98.3719V54.7671Z" fill="#060606"/>
<path d="M91.4052 63.7645C102.467 57.3783 102.467 47.0241 91.4052 40.6378C80.3439 34.2516 62.4099 34.2516 51.3486 40.6378C40.2873 47.0241 40.2873 57.3783 51.3486 63.7645C62.4099 70.1508 80.3439 70.1508 91.4052 63.7645Z" fill="#009260" stroke="#060606" stroke-width="1.5"/>
<path d="M77.4765 45.3985C75.5146 43.8673 72.5179 44.1654 69.2887 45.0744L66.9426 42.8203L64.5662 43.6448L66.8505 45.8396C66.2258 46.0563 65.5946 46.285 64.9677 46.5124L62.6688 44.303L60.2935 45.127L62.6379 47.3808C62.1297 47.5654 61.6302 47.7462 61.1377 47.9173L61.1301 47.9104L57.8516 49.0469L59.3773 50.5121C59.3773 50.5121 61.1122 49.8839 61.1024 49.9127C62.0652 49.5789 62.7143 49.7929 63.0952 50.0397L65.768 52.6076C65.8346 52.5848 65.9229 52.5563 66.0291 52.53C65.95 52.5576 65.865 52.5867 65.7783 52.6173L69.5217 56.215C69.6614 56.4046 69.7736 56.7452 69.1018 56.9792C69.1484 56.9842 67.3739 57.5783 67.3739 57.5783L68.6071 59.3807L71.6997 58.3077C72.2757 58.1085 72.8478 57.9177 73.4059 57.7268L75.7796 60.0063L78.1538 59.183L75.8061 56.9273C76.4661 56.7089 77.1 56.4931 77.7155 56.2791L80.0512 58.5248L82.4276 57.7003L80.0599 55.4242C83.9176 53.9058 86.1092 52.3546 84.2021 50.0679C82.6671 48.2263 80.4359 47.941 77.8406 48.4134C78.7969 47.5303 78.9156 46.5177 77.4765 45.3985ZM79.225 51.4267C80.9994 53.13 75.7449 54.6891 74.1352 55.2487L70.9921 52.2279C72.6035 51.6692 77.3758 49.6496 79.225 51.4267ZM73.6844 47.5485C75.2968 49.0988 70.8946 50.3798 69.5531 50.8452L66.7021 48.1056C68.0436 47.6401 72.0015 45.9318 73.6844 47.5485Z" fill="#060606"/>
<path fill-rule="evenodd" clip-rule="evenodd" d="M98.3719 47.4038C97.0449 44.9867 94.7214 42.7124 91.4013 40.7955C80.34 34.4093 62.4061 34.4093 51.3447 40.7955C48.0247 42.7124 45.7012 44.9867 44.3742 47.4038H43.0469V52.1367H43.0514C42.9517 56.3955 45.7162 60.6726 51.3447 63.9222C62.4061 70.3085 80.34 70.3085 91.4013 63.9222C97.0299 60.6726 99.7944 56.3955 99.6947 52.1367H99.7165V47.4038H98.3719Z" fill="#009260"/>
<path d="M98.3719 47.4038L97.7145 47.7648L97.9281 48.1538H98.3719V47.4038ZM44.3742 47.4038V48.1538H44.818L45.0316 47.7648L44.3742 47.4038ZM43.0469 47.4038V46.6538H42.2969V47.4038H43.0469ZM43.0469 52.1367H42.2969V52.8867H43.0469V52.1367ZM43.0514 52.1367L43.8011 52.1542L43.8191 51.3867H43.0514V52.1367ZM99.6947 52.1367V51.3867H98.927L98.9449 52.1542L99.6947 52.1367ZM99.7165 52.1367V52.8867H100.466V52.1367H99.7165ZM99.7165 47.4038H100.466V46.6538H99.7165V47.4038ZM91.0263 41.4451C94.2594 43.3117 96.4691 45.4964 97.7145 47.7648L99.0294 47.0429C97.6207 44.4769 95.1833 42.113 91.7763 40.146L91.0263 41.4451ZM51.7197 41.4451C57.1096 38.3333 64.221 36.7559 71.373 36.7559C78.5251 36.7559 85.6365 38.3333 91.0263 41.4451L91.7763 40.146C86.1048 36.8716 78.7186 35.2559 71.373 35.2559C64.0275 35.2559 56.6413 36.8716 50.9697 40.146L51.7197 41.4451ZM45.0316 47.7648C46.2769 45.4964 48.4867 43.3117 51.7197 41.4451L50.9697 40.146C47.5628 42.113 45.1254 44.4769 43.7167 47.0429L45.0316 47.7648ZM43.0469 48.1538H44.3742V46.6538H43.0469V48.1538ZM43.7969 52.1367V47.4038H42.2969V52.1367H43.7969ZM43.0514 51.3867H43.0469V52.8867H43.0514V51.3867ZM51.7197 63.2727C46.2301 60.1033 43.7102 56.0414 43.8011 52.1542L42.3016 52.1191C42.1932 56.7497 45.2022 61.2419 50.9697 64.5718L51.7197 63.2727ZM91.0263 63.2727C85.6365 66.3845 78.5251 67.9619 71.373 67.9619C64.221 67.9619 57.1096 66.3845 51.7197 63.2727L50.9697 64.5718C56.6412 67.8462 64.0275 69.4619 71.373 69.4619C78.7186 69.4619 86.1048 67.8462 91.7763 64.5718L91.0263 63.2727ZM98.9449 52.1542C99.0359 56.0414 96.5159 60.1033 91.0263 63.2727L91.7763 64.5718C97.5439 61.2419 100.553 56.7497 100.444 52.1191L98.9449 52.1542ZM99.7165 51.3867H99.6947V52.8867H99.7165V51.3867ZM98.9665 47.4038V52.1367H100.466V47.4038H98.9665ZM98.3719 48.1538H99.7165V46.6538H98.3719V48.1538Z" fill="#060606"/>
<path d="M98.3719 47.4038L97.7145 47.7648L97.9281 48.1538H98.3719V47.4038ZM44.3742 47.4038V48.1538H44.818L45.0316 47.7648L44.3742 47.4038ZM43.0469 47.4038V46.6538H42.2969V47.4038H43.0469ZM43.0469 52.1367H42.2969V52.8867H43.0469V52.1367ZM43.0514 52.1367L43.8011 52.1542L43.8191 51.3867H43.0514V52.1367ZM99.6947 52.1367V51.3867H98.927L98.9449 52.1542L99.6947 52.1367ZM99.7165 52.1367V52.8867H100.466V52.1367H99.7165ZM99.7165 47.4038H100.466V46.6538H99.7165V47.4038ZM91.0263 41.4451C94.2594 43.3117 96.4691 45.4964 97.7145 47.7648L99.0294 47.0429C97.6207 44.4769 95.1833 42.113 91.7763 40.146L91.0263 41.4451ZM51.7197 41.4451C57.1096 38.3333 64.221 36.7559 71.373 36.7559C78.5251 36.7559 85.6365 38.3333 91.0263 41.4451L91.7763 40.146C86.1048 36.8716 78.7186 35.2559 71.373 35.2559C64.0275 35.2559 56.6413 36.8716 50.9697 40.146L51.7197 41.4451ZM45.0316 47.7648C46.2769 45.4964 48.4867 43.3117 51.7197 41.4451L50.9697 40.146C47.5628 42.113 45.1254 44.4769 43.7167 47.0429L45.0316 47.7648ZM43.0469 48.1538H44.3742V46.6538H43.0469V48.1538ZM43.7969 52.1367V47.4038H42.2969V52.1367H43.7969ZM43.0514 51.3867H43.0469V52.8867H43.0514V51.3867ZM51.7197 63.2727C46.2301 60.1033 43.7102 56.0414 43.8011 52.1542L42.3016 52.1191C42.1932 56.7497 45.2022 61.2419 50.9697 64.5718L51.7197 63.2727ZM91.0263 63.2727C85.6365 66.3845 78.5251 67.9619 71.373 67.9619C64.221 67.9619 57.1096 66.3845 51.7197 63.2727L50.9697 64.5718C56.6412 67.8462 64.0275 69.4619 71.373 69.4619C78.7186 69.4619 86.1048 67.8462 91.7763 64.5718L91.0263 63.2727ZM98.9449 52.1542C99.0359 56.0414 96.5159 60.1033 91.0263 63.2727L91.7763 64.5718C97.5439 61.2419 100.553 56.7497 100.444 52.1191L98.9449 52.1542ZM99.7165 51.3867H99.6947V52.8867H99.7165V51.3867ZM98.9665 47.4038V52.1367H100.466V47.4038H98.9665ZM98.3719 48.1538H99.7165V46.6538H98.3719V48.1538Z" fill="#060606"/>
<path d="M91.4052 57.1512C102.467 50.765 102.467 40.4108 91.4052 34.0245C80.3439 27.6383 62.4099 27.6383 51.3486 34.0245C40.2873 40.4108 40.2873 50.765 51.3486 57.1512C62.4099 63.5375 80.3439 63.5375 91.4052 57.1512Z" fill="white" stroke="#060606" stroke-width="1.5"/>
<path d="M77.4765 38.7852C75.5146 37.254 72.5179 37.5521 69.2887 38.4611L66.9426 36.207L64.5662 37.0316L66.8505 39.2263C66.2258 39.4431 65.5946 39.6717 64.9677 39.8991L62.6688 37.6897L60.2935 38.5137L62.6379 40.7675C62.1297 40.9521 61.6302 41.1329 61.1377 41.304L61.1301 41.2971L57.8516 42.4336L59.3773 43.8988C59.3773 43.8988 61.1122 43.2707 61.1024 43.2994C62.0652 42.9657 62.7143 43.1796 63.0952 43.4264L65.768 45.9943C65.8346 45.9715 65.9229 45.943 66.0291 45.9168C65.95 45.9443 65.865 45.9734 65.7783 46.004L69.5217 49.6017C69.6614 49.7913 69.7736 50.132 69.1018 50.3659C69.1484 50.3709 67.3739 50.965 67.3739 50.965L68.6071 52.7674L71.6997 51.6945C72.2757 51.4952 72.8478 51.3044 73.4059 51.1136L75.7796 53.3931L78.1538 52.5697L75.8061 50.314C76.4661 50.0957 77.1 49.8798 77.7155 49.6659L80.0512 51.9116L82.4276 51.087L80.0599 48.8109C83.9176 47.2925 86.1092 45.7413 84.2021 43.4546C82.6671 41.6131 80.4359 41.3278 77.8406 41.8001C78.7969 40.917 78.9156 39.9045 77.4765 38.7852ZM79.225 44.8135C80.9994 46.5167 75.7449 48.0758 74.1352 48.6354L70.9921 45.6146C72.6035 45.0559 77.3758 43.0364 79.225 44.8135ZM73.6844 40.9352C75.2968 42.4855 70.8946 43.7665 69.5531 44.2319L66.7021 41.4923C68.0436 41.0268 72.0015 39.3186 73.6844 40.9352Z" fill="#060606"/>
</svg>
