<svg width="114" height="107" viewBox="0 0 114 107" fill="none" xmlns="http://www.w3.org/2000/svg">
<g clip-path="url(#clip0_19362_38658)">
<mask id="mask0_19362_38658" style="mask-type:luminance" maskUnits="userSpaceOnUse" x="0" y="0" width="114" height="107">
<path d="M113.656 0.220703H0.65625V106.221H113.656V0.220703Z" fill="white"/>
</mask>
<g mask="url(#mask0_19362_38658)">
<path d="M57.0078 105.877C84.622 105.877 107.008 83.4912 107.008 55.877C107.008 28.2627 84.622 5.87695 57.0078 5.87695C29.3936 5.87695 7.00781 28.2627 7.00781 55.877C7.00781 83.4912 29.3936 105.877 57.0078 105.877Z" fill="#141414"/>
<path d="M57.0078 105.877C84.622 105.877 107.008 83.4912 107.008 55.877C107.008 28.2627 84.622 5.87695 57.0078 5.87695C29.3936 5.87695 7.00781 28.2627 7.00781 55.877C7.00781 83.4912 29.3936 105.877 57.0078 105.877Z" fill="#E8E8E8"/>
<path d="M85.9214 101.092L60.193 56.6638C59.8481 56.0682 60.0912 55.5286 60.5779 55.8096L72.2087 62.5246C72.5101 62.6986 72.7543 62.5576 72.7543 62.2096V32.2821C72.7543 31.9342 72.9986 31.7932 73.2999 31.9671L99.245 46.9465C99.5463 47.1205 99.7906 47.5436 99.7906 47.8915V77.819C99.7906 78.167 100.035 78.59 100.336 78.764L112.035 85.5181C112.521 85.7991 112.764 86.6195 112.42 86.8169L86.6912 101.537C86.4783 101.659 86.1342 101.46 85.9214 101.092Z" fill="#060606" stroke="#060606" stroke-width="1.5" stroke-linecap="round" stroke-linejoin="round"/>
<path d="M72.0774 31.1805L65.713 34.855C65.4098 35.03 65.4098 35.3138 65.713 35.4888L71.3651 38.752C71.6682 38.927 72.1597 38.927 72.4629 38.752L78.8273 35.0775C79.1304 34.9025 79.1304 34.6187 78.8273 34.4437L73.1752 31.1805C72.8721 31.0054 72.3806 31.0054 72.0774 31.1805Z" fill="#060606"/>
<path d="M59.3665 54.991L53.002 58.6655C52.6989 58.8405 52.6989 59.1243 53.002 59.2993L67.6182 67.738C67.9214 67.913 68.4129 67.913 68.7161 67.738L75.0805 64.0635C75.3836 63.8885 75.3836 63.6047 75.0805 63.4297L60.4643 54.991C60.1611 54.816 59.6696 54.816 59.3665 54.991Z" fill="#060606"/>
<path d="M79.1167 104.874L53.3883 60.4451C53.0434 59.8495 53.2866 59.3098 53.7732 59.5907L65.404 66.3059C65.7054 66.4799 65.9496 66.3388 65.9496 65.9909V36.0633C65.9496 35.7154 66.1939 35.5744 66.4952 35.7484L92.4403 50.7278C92.7416 50.9017 92.9859 51.3248 92.9859 51.6728V81.6003C92.9859 81.9482 93.2301 82.3713 93.5315 82.5452L105.23 89.2994C105.717 89.5804 105.96 90.4008 105.615 90.5981L79.8865 105.318C79.6736 105.44 79.3295 105.241 79.1167 104.874Z" fill="white" stroke="#060606" stroke-width="1.5" stroke-linecap="round" stroke-linejoin="round"/>
<path d="M53.9306 51.9317L60.4966 48.0198L33.6187 2.38477L26.2109 6.62345L53.9306 51.9317Z" fill="#060606" stroke="#060606" stroke-width="1.5" stroke-linecap="round" stroke-linejoin="round"/>
<path d="M8.63595 18.1222L20.3472 24.8837C20.6504 25.0588 20.8961 25.4844 20.8961 25.8345V55.6902C20.8961 56.0453 21.1487 56.477 21.4562 56.6473L47.3919 71.0132C47.6906 71.1787 47.9297 71.035 47.9297 70.69V41.4423C47.9297 41.0922 48.1754 40.9504 48.4786 41.1254L60.1141 47.8432C60.6041 48.1261 60.8486 47.5821 60.5008 46.9827L34.6638 2.45776C34.4492 2.08795 34.1028 1.88871 33.889 2.01214L8.24781 16.8161C7.90202 17.0158 8.14693 17.8399 8.63595 18.1222Z" fill="#060606" stroke="#060606" stroke-width="1.5" stroke-linecap="round"/>
<path d="M1.97969 22.0831L13.691 28.8447C13.9941 29.0197 14.2399 29.4454 14.2399 29.7954V59.6642C14.2399 60.0142 14.4856 60.4399 14.7888 60.6149L40.7245 75.5889C41.0277 75.7639 41.2734 75.6221 41.2734 75.272V45.4032C41.2734 45.0532 41.5192 44.9113 41.8223 45.0863L53.4579 51.8041C53.9479 52.087 54.1923 51.543 53.8445 50.9436L28.0076 6.4187C27.793 6.04889 27.4466 5.84965 27.2328 5.97308L1.59156 20.7771C1.24577 20.9767 1.49067 21.8008 1.97969 22.0831Z" fill="#009260" stroke="#060606" stroke-width="1.5" stroke-linecap="round"/>
<path d="M48.1308 64.4315L41.7208 68.1323C41.4176 68.3073 41.1719 68.733 41.1719 69.083L41.1719 76.1867C41.1719 76.5368 41.4176 76.6787 41.7208 76.5036L48.1308 72.8028C48.4339 72.6278 48.6797 72.2021 48.6797 71.8521L48.6797 64.7484C48.6797 64.3983 48.4339 64.2565 48.1308 64.4315Z" fill="#060606"/>
</g>
</g>
<defs>
<clipPath id="clip0_19362_38658">
<rect width="113" height="106" fill="white" transform="translate(0.65625 0.220703)"/>
</clipPath>
</defs>
</svg>
