<svg width="114" height="107" viewBox="0 0 114 107" fill="none" xmlns="http://www.w3.org/2000/svg">
<g clip-path="url(#clip0_19362_38632)">
<g clip-path="url(#clip1_19362_38632)">
<path d="M56.8281 103.221C84.4424 103.221 106.828 80.8349 106.828 53.2207C106.828 25.6065 84.4424 3.2207 56.8281 3.2207C29.2139 3.2207 6.82812 25.6065 6.82812 53.2207C6.82812 80.8349 29.2139 103.221 56.8281 103.221Z" fill="#E8E8E8"/>
<path fill-rule="evenodd" clip-rule="evenodd" d="M36.2486 10.4927C35.2921 9.94046 35.2921 9.04503 36.2486 8.49275L38.9658 6.92398C39.9224 6.37169 41.4733 6.37169 42.4299 6.92398L55.1748 14.2822C55.2949 14.3516 55.4 14.4264 55.49 14.5052L92.6725 35.9725C94.5857 37.0771 96.1366 39.7634 96.1366 41.9725V52.1425C96.137 52.1604 96.1372 52.1784 96.1372 52.1966V77.6156C96.1372 78.7202 95.3617 80.0633 94.4052 80.6156L91.5377 82.2712C90.5811 82.8234 89.8057 82.3757 89.8057 81.2712V64.4222L48.1545 40.3749C46.2414 39.2703 44.6904 36.584 44.6904 34.3749V15.3666L36.2486 10.4927Z" fill="#C0C0C0"/>
<path d="M55.49 14.5052L54.9957 15.0693L55.0511 15.1179L55.115 15.1547L55.49 14.5052ZM96.1367 52.1425H95.3867V52.1513L95.3868 52.1601L96.1367 52.1425ZM89.8057 64.4222H90.5557V63.9891L90.1807 63.7726L89.8057 64.4222ZM44.6904 15.3666H45.4404V14.9336L45.0654 14.7171L44.6904 15.3666ZM35.8736 7.84324C35.2587 8.19827 34.7812 8.76843 34.7812 9.49276C34.7812 10.2171 35.2587 10.7872 35.8736 11.1423L36.6236 9.84324C36.458 9.74761 36.3686 9.65685 36.3243 9.59385C36.2826 9.53452 36.2812 9.50169 36.2812 9.49276C36.2812 9.48382 36.2826 9.45099 36.3243 9.39166C36.3686 9.32866 36.458 9.2379 36.6236 9.14227L35.8736 7.84324ZM38.5908 6.27447L35.8736 7.84324L36.6236 9.14227L39.3408 7.5735L38.5908 6.27447ZM42.8049 6.27447C42.1858 5.91701 41.4215 5.75977 40.6979 5.75977C39.9742 5.75977 39.21 5.91701 38.5908 6.27447L39.3408 7.5735C39.6783 7.37868 40.1678 7.25977 40.6979 7.25977C41.228 7.25977 41.7175 7.37868 42.0549 7.57351L42.8049 6.27447ZM55.5498 13.6327L42.8049 6.27447L42.0549 7.57351L54.7998 14.9317L55.5498 13.6327ZM55.9842 13.9411C55.8536 13.8267 55.7078 13.7239 55.5498 13.6327L54.7998 14.9317C54.882 14.9792 54.9463 15.0261 54.9957 15.0693L55.9842 13.9411ZM93.0475 35.323L55.865 13.8557L55.115 15.1547L92.2975 36.6221L93.0475 35.323ZM96.8867 41.9725C96.8867 40.7053 96.4467 39.3529 95.7715 38.1833C95.0962 37.0137 94.1449 35.9566 93.0475 35.323L92.2975 36.6221C93.1132 37.093 93.8941 37.9313 94.4725 38.9333C95.0509 39.9353 95.3867 41.0306 95.3867 41.9725H96.8867ZM96.8867 52.1425V41.9725H95.3867V52.1425H96.8867ZM95.3868 52.1601C95.3871 52.172 95.3872 52.1841 95.3872 52.1966H96.8872C96.8872 52.1726 96.887 52.1487 96.8865 52.1249L95.3868 52.1601ZM95.3872 52.1966V77.6156H96.8872V52.1966H95.3872ZM95.3872 77.6156C95.3872 78.0053 95.2454 78.4886 94.9804 78.9477C94.7153 79.4068 94.3676 79.7713 94.0303 79.9661L94.7803 81.2652C95.3993 80.9077 95.9176 80.3244 96.2794 79.6977C96.6413 79.071 96.8872 78.3305 96.8872 77.6156H95.3872ZM94.0303 79.9661L91.1628 81.6216L91.9128 82.9207L94.7803 81.2652L94.0303 79.9661ZM91.1628 81.6216C90.9972 81.7173 90.8737 81.7494 90.7971 81.7562C90.7248 81.7626 90.6958 81.7474 90.688 81.743C90.6802 81.7385 90.6525 81.7208 90.622 81.6551C90.5895 81.5853 90.5557 81.4624 90.5557 81.2712H89.0557C89.0557 81.9812 89.3107 82.6798 89.938 83.042C90.5653 83.4042 91.2979 83.2757 91.9128 82.9207L91.1628 81.6216ZM90.5557 81.2712V64.4222H89.0557V81.2712H90.5557ZM47.7795 41.0244L89.4307 65.0717L90.1807 63.7726L48.5295 39.7253L47.7795 41.0244ZM43.9404 34.3749C43.9404 35.6421 44.3802 36.9945 45.0555 38.1641C45.7308 39.3337 46.6821 40.3908 47.7795 41.0244L48.5295 39.7253C47.7138 39.2544 46.933 38.4161 46.3545 37.4141C45.7761 36.4121 45.4404 35.3168 45.4404 34.3749H43.9404ZM43.9404 15.3666V34.3749H45.4404V15.3666H43.9404ZM35.8736 11.1423L44.3154 16.0161L45.0654 14.7171L36.6236 9.84324L35.8736 11.1423Z" fill="#060606"/>
<mask id="mask0_19362_38632" style="mask-type:alpha" maskUnits="userSpaceOnUse" x="34" y="5" width="63" height="79">
<path fill-rule="evenodd" clip-rule="evenodd" d="M36.2486 10.4927C35.2921 9.94046 35.2921 9.04503 36.2486 8.49275L38.9658 6.92398C39.9224 6.37169 41.4733 6.37169 42.4299 6.92398L55.1748 14.2822C55.2949 14.3516 55.4 14.4264 55.49 14.5052L92.6725 35.9725C94.5857 37.0771 96.1366 39.7634 96.1366 41.9725V52.1425C96.137 52.1604 96.1372 52.1784 96.1372 52.1966V77.5809C96.1372 78.6854 95.3617 80.0286 94.4052 80.5809L91.5377 82.2364C90.5811 82.7887 89.8057 82.341 89.8057 81.2364V64.4222L48.1545 40.3749C46.2414 39.2703 44.6904 36.584 44.6904 34.3749V15.3666L36.2486 10.4927Z" fill="#C0C0C0"/>
<path d="M55.49 14.5052L54.9957 15.0693L55.0511 15.1179L55.115 15.1547L55.49 14.5052ZM96.1367 52.1425H95.3867V52.1513L95.3868 52.1601L96.1367 52.1425ZM89.8057 64.4222H90.5557V63.9891L90.1807 63.7726L89.8057 64.4222ZM44.6904 15.3666H45.4404V14.9336L45.0654 14.7171L44.6904 15.3666ZM35.8736 7.84324C35.2587 8.19827 34.7812 8.76843 34.7812 9.49276C34.7812 10.2171 35.2587 10.7872 35.8736 11.1423L36.6236 9.84324C36.458 9.74761 36.3686 9.65685 36.3243 9.59385C36.2826 9.53452 36.2812 9.50169 36.2812 9.49276C36.2812 9.48382 36.2826 9.45099 36.3243 9.39166C36.3686 9.32866 36.458 9.2379 36.6236 9.14227L35.8736 7.84324ZM38.5908 6.27447L35.8736 7.84324L36.6236 9.14227L39.3408 7.5735L38.5908 6.27447ZM42.8049 6.27447C42.1858 5.91701 41.4215 5.75977 40.6979 5.75977C39.9742 5.75977 39.21 5.91701 38.5908 6.27447L39.3408 7.5735C39.6783 7.37868 40.1678 7.25977 40.6979 7.25977C41.228 7.25977 41.7175 7.37868 42.0549 7.57351L42.8049 6.27447ZM55.5498 13.6327L42.8049 6.27447L42.0549 7.57351L54.7998 14.9317L55.5498 13.6327ZM55.9842 13.9411C55.8536 13.8267 55.7078 13.7239 55.5498 13.6327L54.7998 14.9317C54.882 14.9792 54.9463 15.0261 54.9957 15.0693L55.9842 13.9411ZM93.0475 35.323L55.865 13.8557L55.115 15.1547L92.2975 36.6221L93.0475 35.323ZM96.8867 41.9725C96.8867 40.7053 96.4467 39.3529 95.7715 38.1833C95.0962 37.0137 94.1449 35.9566 93.0475 35.323L92.2975 36.6221C93.1132 37.093 93.8941 37.9313 94.4725 38.9333C95.0509 39.9353 95.3867 41.0306 95.3867 41.9725H96.8867ZM96.8867 52.1425V41.9725H95.3867V52.1425H96.8867ZM95.3868 52.1601C95.3871 52.172 95.3872 52.1841 95.3872 52.1966H96.8872C96.8872 52.1726 96.887 52.1487 96.8865 52.1249L95.3868 52.1601ZM95.3872 52.1966V77.5809H96.8872V52.1966H95.3872ZM95.3872 77.5809C95.3872 77.9705 95.2454 78.4539 94.9804 78.913C94.7153 79.3721 94.3676 79.7365 94.0303 79.9313L94.7803 81.2304C95.3993 80.8729 95.9176 80.2897 96.2794 79.663C96.6413 79.0363 96.8872 78.2958 96.8872 77.5809H95.3872ZM94.0303 79.9313L91.1628 81.5869L91.9128 82.8859L94.7803 81.2304L94.0303 79.9313ZM91.1628 81.5869C90.9972 81.6825 90.8737 81.7146 90.7971 81.7214C90.7248 81.7278 90.6958 81.7127 90.688 81.7082C90.6802 81.7037 90.6525 81.6861 90.622 81.6203C90.5895 81.5505 90.5557 81.4276 90.5557 81.2364H89.0557C89.0557 81.9464 89.3107 82.6451 89.938 83.0072C90.5653 83.3694 91.2979 83.2409 91.9128 82.8859L91.1628 81.5869ZM90.5557 81.2364V64.4222H89.0557V81.2364H90.5557ZM47.7795 41.0244L89.4307 65.0717L90.1807 63.7726L48.5295 39.7253L47.7795 41.0244ZM43.9404 34.3749C43.9404 35.6421 44.3802 36.9945 45.0555 38.1641C45.7308 39.3337 46.6821 40.3908 47.7795 41.0244L48.5295 39.7253C47.7138 39.2544 46.933 38.4161 46.3545 37.4141C45.7761 36.4121 45.4404 35.3168 45.4404 34.3749H43.9404ZM43.9404 15.3666V34.3749H45.4404V15.3666H43.9404ZM35.8736 11.1423L44.3154 16.0161L45.0654 14.7171L36.6236 9.84324L35.8736 11.1423Z" fill="#060606"/>
</mask>
<g mask="url(#mask0_19362_38632)">
<path d="M97.0996 38.7278L91.5367 41.9395C90.5802 42.4917 89.8047 43.8349 89.8047 44.9395L89.8047 83.3445C89.8047 84.449 90.5802 84.8967 91.5367 84.3445L97.0996 81.1328C98.0561 80.5805 98.8316 79.2373 98.8316 78.1328L98.8316 39.7278C98.8316 38.6232 98.0561 38.1755 97.0996 38.7278Z" fill="#717172"/>
</g>
<path d="M55.49 14.5052L54.9957 15.0693L55.0511 15.1179L55.115 15.1547L55.49 14.5052ZM96.1367 52.1425H95.3867V52.1513L95.3868 52.1601L96.1367 52.1425ZM89.8057 64.4222H90.5557V63.9891L90.1807 63.7726L89.8057 64.4222ZM44.6904 15.3666H45.4404V14.9336L45.0654 14.7171L44.6904 15.3666ZM35.8736 7.84324C35.2587 8.19827 34.7812 8.76843 34.7812 9.49276C34.7812 10.2171 35.2587 10.7872 35.8736 11.1423L36.6236 9.84324C36.458 9.74761 36.3686 9.65685 36.3243 9.59385C36.2826 9.53452 36.2812 9.50169 36.2812 9.49276C36.2812 9.48382 36.2826 9.45099 36.3243 9.39166C36.3686 9.32866 36.458 9.2379 36.6236 9.14227L35.8736 7.84324ZM38.5908 6.27447L35.8736 7.84324L36.6236 9.14227L39.3408 7.5735L38.5908 6.27447ZM42.8049 6.27447C42.1858 5.91701 41.4215 5.75977 40.6979 5.75977C39.9742 5.75977 39.21 5.91701 38.5908 6.27447L39.3408 7.5735C39.6783 7.37868 40.1678 7.25977 40.6979 7.25977C41.228 7.25977 41.7175 7.37868 42.0549 7.57351L42.8049 6.27447ZM55.5498 13.6327L42.8049 6.27447L42.0549 7.57351L54.7998 14.9317L55.5498 13.6327ZM55.9842 13.9411C55.8536 13.8267 55.7078 13.7239 55.5498 13.6327L54.7998 14.9317C54.882 14.9792 54.9463 15.0261 54.9957 15.0693L55.9842 13.9411ZM93.0475 35.323L55.865 13.8557L55.115 15.1547L92.2975 36.6221L93.0475 35.323ZM96.8867 41.9725C96.8867 40.7053 96.4467 39.3529 95.7715 38.1833C95.0962 37.0137 94.1449 35.9566 93.0475 35.323L92.2975 36.6221C93.1132 37.093 93.8941 37.9313 94.4725 38.9333C95.0509 39.9353 95.3867 41.0306 95.3867 41.9725H96.8867ZM96.8867 52.1425V41.9725H95.3867V52.1425H96.8867ZM95.3868 52.1601C95.3871 52.172 95.3872 52.1841 95.3872 52.1966H96.8872C96.8872 52.1726 96.887 52.1487 96.8865 52.1249L95.3868 52.1601ZM95.3872 52.1966V78.5641H96.8872V52.1966H95.3872ZM95.3872 78.5641C95.3872 78.9537 95.2454 79.4371 94.9804 79.8962C94.7153 80.3553 94.3676 80.7197 94.0303 80.9146L94.7803 82.2136C95.3993 81.8561 95.9176 81.2729 96.2794 80.6462C96.6413 80.0195 96.8872 79.279 96.8872 78.5641H95.3872ZM94.0303 80.9146L91.1628 82.5701L91.9128 83.8691L94.7803 82.2136L94.0303 80.9146ZM91.1628 82.5701C90.9972 82.6657 90.8737 82.6978 90.7971 82.7046C90.7248 82.7111 90.6958 82.6959 90.688 82.6914C90.6802 82.6869 90.6525 82.6693 90.622 82.6035C90.5895 82.5337 90.5557 82.4108 90.5557 82.2196H89.0557C89.0557 82.9297 89.3107 83.6283 89.938 83.9904C90.5653 84.3526 91.2979 84.2242 91.9128 83.8691L91.1628 82.5701ZM90.5557 82.2196V64.4222H89.0557V82.2196H90.5557ZM47.7795 41.0244L89.4307 65.0717L90.1807 63.7726L48.5295 39.7253L47.7795 41.0244ZM43.9404 34.3749C43.9404 35.6421 44.3802 36.9945 45.0555 38.1641C45.7308 39.3337 46.6821 40.3908 47.7795 41.0244L48.5295 39.7253C47.7138 39.2544 46.933 38.4161 46.3545 37.4141C45.7761 36.4121 45.4404 35.3168 45.4404 34.3749H43.9404ZM43.9404 15.3666V34.3749H45.4404V15.3666H43.9404ZM35.8736 11.1423L44.3154 16.0161L45.0654 14.7171L36.6236 9.84324L35.8736 11.1423Z" fill="#060606"/>
<path d="M34.5234 10.3206C34.5234 8.66381 35.6866 7.99223 37.1215 8.82066L89.2012 38.8888C90.636 39.7172 91.7992 41.732 91.7992 43.3888V81.1509C91.7992 83.9123 89.8606 85.0316 87.4691 83.6509L37.1215 54.5827C35.6866 53.7543 34.5234 51.7396 34.5234 50.0827V10.3206Z" fill="#C0C0C0" stroke="#060606" stroke-width="1.5"/>
<path d="M34.5234 10.3206C34.5234 8.66381 35.6866 7.99223 37.1215 8.82066L89.2012 38.8888C90.636 39.7172 91.7992 41.732 91.7992 43.3888V64.422L34.5234 31.3538V10.3206Z" fill="#060606" stroke="#060606" stroke-width="1.5"/>
<path d="M26.0234 19.643C26.0234 17.9861 27.1866 17.3145 28.6214 18.143L80.7011 48.2112C82.136 49.0396 83.2992 51.0543 83.2992 52.7112V90.4733C83.2992 93.2347 81.3605 94.354 78.969 92.9733L28.6214 63.9051C27.1866 63.0767 26.0234 61.0619 26.0234 59.4051V19.643Z" fill="#141414" stroke="#060606" stroke-width="1.5"/>
<path d="M26.0234 39.668L83.2992 72.7362V90.4752C83.2992 93.2366 81.3605 94.3559 78.969 92.9752L28.6214 63.907C27.1866 63.0786 26.0234 61.0639 26.0234 59.407V39.668Z" fill="#71A407" stroke="#060606" stroke-width="1.5"/>
<path d="M17.5156 24.1019C17.5156 22.445 18.6788 21.7734 20.1137 22.6019L72.1934 52.6701C73.6282 53.4985 74.7914 55.5132 74.7914 57.1701V94.9322C74.7914 97.6936 72.8528 98.8129 70.4613 97.4322L20.1137 68.364C18.6788 67.5355 17.5156 65.5208 17.5156 63.864V24.1019Z" fill="white" stroke="#060606" stroke-width="1.5"/>
<path d="M17.5156 42.3887L74.7914 75.4569V94.9307C74.7914 97.6921 72.8528 98.8114 70.4613 97.4307L20.1137 68.3625C18.6788 67.534 17.5156 65.5193 17.5156 63.8625V42.3887Z" fill="#009260" stroke="#060606" stroke-width="1.5"/>
<path d="M56.8175 83.2885C59.5601 84.8719 61.7834 83.5883 61.7834 80.4214C61.7834 77.2545 59.5601 73.4036 56.8175 71.8202C54.0749 70.2368 51.8516 71.5204 51.8516 74.6873C51.8516 77.8542 54.0749 81.7051 56.8175 83.2885Z" fill="white"/>
<path d="M62.7081 86.6889C65.4507 88.2723 67.674 86.9887 67.674 83.8218C67.674 80.6549 65.4507 76.804 62.7081 75.2206C59.9655 73.6371 57.7422 74.9208 57.7422 78.0877C57.7422 81.2545 59.9655 85.1054 62.7081 86.6889Z" fill="#060606"/>
</g>
</g>
<defs>
<clipPath id="clip0_19362_38632">
<rect width="113" height="106" fill="white" transform="translate(0.828125 0.220703)"/>
</clipPath>
<clipPath id="clip1_19362_38632">
<rect width="113" height="106" fill="white" transform="translate(0.828125 0.220703)"/>
</clipPath>
</defs>
</svg>
